<svg width="16" height="16" viewBox="0 0 16 16" fill="white" xmlns="http://www.w3.org/2000/svg">
<g id="Modify">
<path id="Vector 35" d="M8.66667 2H3C2.44771 2 2 2.44772 2 3V13C2 13.5523 2.44772 14 3 14H13C13.5523 14 14 13.5523 14 13V7.33333" stroke="#202020" stroke-width="1.5" stroke-linecap="round" stroke-linejoin="round"/>
<path id="Vector 36" d="M12.6667 4.66667L13.6464 3.68689C13.8417 3.49162 13.8417 3.17504 13.6464 2.97978L13.0202 2.35355C12.825 2.15829 12.5084 2.15829 12.3131 2.35355L11.3333 3.33333M12.6667 4.66667L8.08346 9.24987C8.02858 9.30476 7.96166 9.34611 7.88802 9.37066L6.94868 9.68377C6.5578 9.81407 6.18593 9.4422 6.31623 9.05132L6.62934 8.11198C6.65389 8.03834 6.69524 7.97142 6.75013 7.91654L11.3333 3.33333M12.6667 4.66667L11.3333 3.33333" stroke="#202020" stroke-width="1.5" stroke-linecap="round" stroke-linejoin="round"/>
</g>
</svg>
