<svg width="25" height="24" viewBox="0 0 25 24" fill="none" xmlns="http://www.w3.org/2000/svg">
<path d="M12.0342 2.19322C12.1998 1.76897 12.8002 1.76897 12.9658 2.19322L15.1765 7.8568C15.2476 8.03885 15.4182 8.16281 15.6133 8.17414L21.6829 8.52656C22.1375 8.55296 22.323 9.12392 21.9707 9.41251L17.2675 13.2652C17.1163 13.3891 17.0512 13.5896 17.1007 13.7787L18.6411 19.6601C18.7565 20.1006 18.2708 20.4535 17.8875 20.2076L12.77 16.9252C12.6054 16.8196 12.3946 16.8196 12.23 16.9252L7.11254 20.2076C6.72919 20.4535 6.24351 20.1006 6.3589 19.6601L7.89932 13.7787C7.94884 13.5896 7.88367 13.3891 7.73248 13.2652L3.02927 9.41251C2.67696 9.12392 2.86247 8.55296 3.31713 8.52656L9.38667 8.17414C9.58178 8.16281 9.7524 8.03885 9.82346 7.8568L12.0342 2.19322Z" fill="#008859"/>
</svg>
