        <svg width="16" height="16" viewBox="0 0 24 24" xmlns="http://www.w3.org/2000/svg">
          <path
            fill="#000000"
            d="M11.5 21.77q-2.088 0-3.563-1.476q-1.475-1.475-1.475-3.563V5.615q0-1.507 1.073-2.58q1.073-1.073 2.58-1.073q1.508 0 2.58 1.073q1.074 1.073 1.074 2.58v10q0 .953-.658 1.612q-.658.658-1.612.658q-.953 0-1.61-.658q-.658-.659-.658-1.612v-10h.884v10q0 .589.398.987q.399.398.987.398t.987-.398q.398-.398.398-.987v-10q0-1.163-.804-1.966t-1.967-.803q-1.164 0-1.966.803t-.802 1.966v11.116q0 1.727 1.214 2.94q1.213 1.214 2.94 1.214t2.94-1.214q1.214-1.213 1.214-2.94V5.615h.884v11.116q0 2.088-1.475 3.563T11.5 21.77"
          />
        </svg>