<svg width="18" height="22" viewBox="0 0 18 22" fill="none" xmlns="http://www.w3.org/2000/svg">
<path d="M10.0286 13.0465C10.0286 13.3675 9.87998 13.654 9.64749 13.8416L10.0286 16.1163H7.97143L8.35251 13.8416C8.12002 13.654 7.97143 13.3675 7.97143 13.0465C7.97143 12.4814 8.43194 12.0233 9 12.0233C9.56807 12.0233 10.0286 12.4814 10.0286 13.0465Z" fill="#6B6B6B"/>
<path fill-rule="evenodd" clip-rule="evenodd" d="M9 0C6.30169 0 4.11429 2.1761 4.11429 4.86047V7.16279H2.82857C1.26639 7.16279 0 8.42264 0 9.97674V19.186C0 20.7402 1.26639 22 2.82857 22H15.1714C16.7336 22 18 20.7402 18 19.186V9.97674C18 8.42264 16.7336 7.16279 15.1714 7.16279H13.8857V4.86047C13.8857 2.1761 11.6983 0 9 0ZM12.3429 7.16279V4.86047C12.3429 3.0238 10.8462 1.53488 9 1.53488C7.15379 1.53488 5.65714 3.0238 5.65714 4.86047V7.16279H12.3429ZM1.54286 9.97674C1.54286 9.27033 2.11849 8.69767 2.82857 8.69767H15.1714C15.8815 8.69767 16.4571 9.27033 16.4571 9.97674V19.186C16.4571 19.8925 15.8815 20.4651 15.1714 20.4651H2.82857C2.11849 20.4651 1.54286 19.8925 1.54286 19.186V9.97674Z" fill="#6B6B6B"/>
</svg>
